<!--?xml version="1.0" standalone="no"?-->
              <svg id="sw-js-blob-svg" viewBox="0 0 100 100" xmlns="http://www.w3.org/2000/svg" version="1.1">
                    <defs> 
                        <linearGradient id="sw-gradient" x1="0" x2="1" y1="1" y2="0">
                            <stop id="stop1" stop-color="rgba(123, 191, 153, 1)" offset="0%"></stop>
                            <stop id="stop2" stop-color="rgba(123, 191, 153, 1)" offset="100%"></stop>
                        </linearGradient>
                    </defs>
                <path fill="url(#sw-gradient)" d="M17.2,-30.3C22.4,-26.8,26.9,-22.5,30.7,-17.3C34.4,-12.1,37.5,-6,38.8,0.8C40.2,7.6,39.8,15.2,36.8,21.7C33.8,28.1,28.1,33.5,21.5,35.3C14.9,37.2,7.5,35.6,-0.4,36.3C-8.3,36.9,-16.5,39.9,-23.4,38.2C-30.3,36.6,-35.9,30.2,-38.6,23.1C-41.2,15.9,-41.1,8,-40,0.6C-38.9,-6.7,-37,-13.5,-33,-18.4C-29.1,-23.4,-23.1,-26.6,-17.3,-29.8C-11.5,-33,-5.7,-36.1,0.1,-36.4C6,-36.6,12,-33.8,17.2,-30.3Z" width="100%" height="100%" transform="translate(50 50)" stroke-width="0" style="transition: all 0.3s ease 0s;"></path>
              </svg>